<?xml version="1.0" encoding="utf-8"?>
<!-- Adapted from KDE Breeze "network-wired-symbolic" (LGPL-3.0+).
     The Windows-style ethernet look: a small computer with a cable
     curving out to a connected port. -->
<svg xmlns="http://www.w3.org/2000/svg" viewBox="0 0 24 24" width="24" height="24">
  <g transform="translate(1,1)">
    <path fill="#ffffff" d="m 3,3 0,6 2,0 0,7 c 0,1.662 1.338,3 3,3 l 1,0 1,0 2,0 3,0 0,-1 -1,0 -1,0 0,-2 1,0 4,0 1,0 0,-13 -1,0 -9,0 0,1 9,0 0,10 -11,0 0,1 0,1 1,0 1,0 0,1 0,0.7266 0,0.2734 -1,0 c -1.108,0 -2,-0.892 -2,-2 l 0,-7 2,0 0,-6 z m 1,1 3,0 0,4 -3,0 z m 1,1 0,2 1,0 0,-2 z m -2,5 0,6 1,0 0,-6 z"/>
  </g>
</svg>
